<?xml version="1.0" encoding="iso-8859-1"?>
<!-- Generator: Adobe Illustrator 16.0.0, SVG Export Plug-In . SVG Version: 6.00 Build 0)  -->
<!DOCTYPE svg PUBLIC "-//W3C//DTD SVG 1.1//EN" "http://www.w3.org/Graphics/SVG/1.1/DTD/svg11.dtd">
<svg version="1.1" id="Capa_1" xmlns="http://www.w3.org/2000/svg" xmlns:xlink="http://www.w3.org/1999/xlink" x="0px" y="0px"
	 width="94.442px" height="94.441px" viewBox="0 0 94.442 94.441" style="enable-background:new 0 0 94.442 94.441;"
	 xml:space="preserve">
<g>
	<g id="Layer_1_10_">
		<g>
			<g>
				<g>
					<path d="M74.831,11.586H64.522v-1.258c0-1.495-1.217-2.712-2.711-2.712h-7.103V2.711C54.708,1.217,53.493,0,51.998,0h-9.555
						c-1.494,0-2.711,1.217-2.711,2.711v4.905h-7.103c-1.494,0-2.711,1.217-2.711,2.712v1.258H19.611
						c-2.132,0-3.866,1.734-3.866,3.865v75.125c0,2.131,1.734,3.865,3.866,3.865h55.22c2.133,0,3.866-1.734,3.866-3.865V15.451
						C78.698,13.321,76.963,11.586,74.831,11.586z M43.381,3.292c0-0.16,0.13-0.287,0.289-0.287h7.102
						c0.158,0,0.289,0.127,0.289,0.287v3.646h-7.68V3.292z M73.727,88.735c0,0.299-0.242,0.542-0.541,0.542h-51.93
						c-0.299,0-0.541-0.243-0.541-0.542v-70.89c0-0.299,0.242-0.542,0.541-0.542h9.002v4.135c0,1.465,1.192,2.658,2.658,2.658
						h28.609c1.466,0,2.657-1.193,2.657-2.658v-4.135h9.002c0.3,0,0.541,0.243,0.541,0.542v70.89H73.727z"/>
				</g>
			</g>
			<g>
				<g>
					<polygon points="52.235,49.112 29.17,49.112 29.17,58.33 52.235,58.33 52.235,66.758 65.272,53.721 52.235,40.685 					"/>
				</g>
			</g>
		</g>
	</g>
</g>
<g>
</g>
<g>
</g>
<g>
</g>
<g>
</g>
<g>
</g>
<g>
</g>
<g>
</g>
<g>
</g>
<g>
</g>
<g>
</g>
<g>
</g>
<g>
</g>
<g>
</g>
<g>
</g>
<g>
</g>
</svg>
